# xmcd CD database file
#
# Track frame offsets:
#	150
#	19918
#	41392
#	61446
#	79036
#	95642
#	112706
#	131457
#	150295
#	170617
#	187406
#	207550
#	222823
#	240259
#	255596
#	272598
#	290014
#	304111
#
# Disc length: 4254 seconds
#
# Revision: 5
# Processed by: cddbd v1.5.2PL0 Copyright (c) Steve Scherf et al.
# Submitted via: CDex 1.51
#
DISCID=f8109c12
DTITLE=Various Artist - SF-340
DYEAR=1900
DGENRE=Blues
TTITLE0=Michael Jackson and Justin Timberlake - Love Never Felt So Good
TTITLE1=Coldplay - A Sky Full Of Stars
TTITLE2=Usher - Good Kisser
TTITLE3=Paolo Nutini - Let Me Down Easy
TTITLE4=Mr Probz - Waves (robin schulz radio edit)
TTITLE5=Lykke Li - No Rest for The Wicked
TTITLE6=Gorgon City Ft Laura Welsh - Here For You
TTITLE7=Paloma Faith - Only Love Can Hurt like This
TTITLE8=Clean Bandit Ft Sharma Bass - Exraordinary
TTITLE9=Cash Cash Ft Bebe Rexha - Take Me Home
TTITLE10=Passenger - Hearts On Fire
TTITLE11=Shakira - Dare (La La La)
TTITLE12=Ellie Goulding - Beating Heart
TTITLE13=The Common Linnets - Calm After The Storm (Eurovision 2014-2nd Place)
TTITLE14=Katy B - Still
TTITLE15=Kylie Minogue - I Was Gonna Cancel
TTITLE16=5 Seconds Of Summer - Don't Stop
TTITLE17=Conchita Wurst - Rise Like A Phoenix (Eurovision 2014 Winner)
EXTD=
EXTT0=
EXTT1=
EXTT2=
EXTT3=
EXTT4=
EXTT5=
EXTT6=
EXTT7=
EXTT8=
EXTT9=
EXTT10=
EXTT11=
EXTT12=
EXTT13=
EXTT14=
EXTT15=
EXTT16=
EXTT17=
PLAYORDER=
